<svg width="150" height="150" viewBox="0 0 150 150" fill="none" xmlns="http://www.w3.org/2000/svg">
<g clip-path="url(#clip0_1025_405)">
<path fill-rule="evenodd" clip-rule="evenodd" d="M0 0H150V150H0V0ZM72.4147 18.002C41.9019 19.2895 18.0008 44.3232 18.0008 75.0006C18.0008 106.433 43.5669 131.999 74.9994 131.999C105.677 131.999 130.711 108.098 131.998 77.5853C132.046 76.3752 131.195 75.2716 129.984 75.049C128.784 74.8167 127.584 75.504 127.177 76.6656C121.301 93.4516 105.309 104.739 87.3904 104.739C64.1573 104.739 45.261 85.8427 45.261 62.6096C45.261 44.691 56.5484 28.6989 73.3344 22.8228C74.496 22.4163 75.193 21.2256 74.951 20.0155C74.7284 18.8054 73.6441 17.9536 72.4147 18.002Z" fill="#F86527"/>
</g>
<defs>
<clipPath id="clip0_1025_405">
<rect width="150" height="150" rx="20" fill="white"/>
</clipPath>
</defs>
</svg>
