<svg width="256" height="256" viewBox="0 0 256 256" fill="none" xmlns="http://www.w3.org/2000/svg">
<g clip-path="url(#clip0_234_1631)">
<path d="M256 0H0V256H256V0Z" fill="#FF4500"/>
<path d="M200.6 153.601C217.113 153.601 230.5 140.214 230.5 123.701C230.5 107.187 217.113 93.8008 200.6 93.8008C184.087 93.8008 170.7 107.187 170.7 123.701C170.7 140.214 184.087 153.601 200.6 153.601Z" fill="url(#paint0_radial_234_1631)"/>
<path d="M55.4 153.601C71.9133 153.601 85.3 140.214 85.3 123.701C85.3 107.187 71.9133 93.8008 55.4 93.8008C38.8867 93.8008 25.5 107.187 25.5 123.701C25.5 140.214 38.8867 153.601 55.4 153.601Z" fill="url(#paint1_radial_234_1631)"/>
<path d="M128.1 213.301C175.21 213.301 213.4 184.647 213.4 149.301C213.4 113.955 175.21 85.3008 128.1 85.3008C80.9902 85.3008 42.8 113.955 42.8 149.301C42.8 184.647 80.9902 213.301 128.1 213.301Z" fill="url(#paint2_radial_234_1631)"/>
<path d="M102.8 143.1C102.3 153.9 95.1 157.9 86.7 157.9C78.3 157.9 71.9 152.3 72.4 141.5C72.9 130.7 80.1 123.5 88.5 123.5C96.9 123.5 103.3 132.3 102.8 143.1Z" fill="#842123"/>
<path d="M183.6 141.5C184.1 152.3 177.7 157.9 169.3 157.9C160.9 157.9 153.7 154 153.2 143.1C152.7 132.3 159.1 123.5 167.5 123.5C175.9 123.5 183.1 130.6 183.6 141.5Z" fill="#842123"/>
<path d="M153.3 144.102C153.8 154.202 160.5 157.902 168.3 157.902C176.1 157.902 182.1 152.402 181.7 142.202C181.2 132.102 174.5 125.402 166.7 125.402C158.9 125.402 152.8 133.902 153.3 144.102Z" fill="url(#paint3_radial_234_1631)"/>
<path d="M102.8 144.102C102.3 154.202 95.5999 157.902 87.7999 157.902C79.9999 157.902 73.9999 152.402 74.4999 142.202C74.9999 132.102 81.6999 125.402 89.4999 125.402C97.2999 125.402 103.3 133.902 102.8 144.102Z" fill="url(#paint4_radial_234_1631)"/>
<path d="M128.1 165.102C117.5 165.102 107.4 165.602 98 166.502C96.4 166.702 95.4 168.302 96 169.702C101.2 182.002 113.6 190.702 128.1 190.702C142.6 190.702 154.9 182.102 160.2 169.702C160.8 168.202 159.8 166.602 158.2 166.502C148.8 165.602 138.7 165.102 128.1 165.102Z" fill="#BBCFDA"/>
<path d="M128.1 167.5C117.5 167.5 107.4 168 98.1 169C96.5 169.2 95.5 170.8 96.1 172.3C101.3 184.8 113.7 193.6 128.1 193.6C142.5 193.6 154.9 184.8 160.1 172.3C160.7 170.8 159.7 169.2 158.1 169C148.7 168 138.6 167.5 128.1 167.5Z" fill="white"/>
<path d="M128.1 166.199C117.7 166.199 107.8 166.699 98.6 167.599C97 167.799 96 169.399 96.6 170.799C101.8 183.099 113.9 191.799 128.1 191.799C142.3 191.799 154.4 183.199 159.6 170.799C160.2 169.299 159.2 167.699 157.6 167.599C148.4 166.799 138.5 166.199 128.1 166.199Z" fill="url(#paint5_radial_234_1631)"/>
<path d="M174.8 76.7008C186.508 76.7008 196 67.2092 196 55.5008C196 43.7923 186.508 34.3008 174.8 34.3008C163.092 34.3008 153.6 43.7923 153.6 55.5008C153.6 67.2092 163.092 76.7008 174.8 76.7008Z" fill="url(#paint6_radial_234_1631)"/>
<path d="M127.8 88.0023C125.3 88.0023 123.2 86.9023 123.2 85.3023C123.2 66.3023 138.6 50.9023 157.6 50.9023C160.1 50.9023 162.2 53.0023 162.2 55.5023C162.2 58.0023 160.1 60.1023 157.6 60.1023C143.7 60.1023 132.4 71.4023 132.4 85.3023C132.4 87.0023 130.3 88.0023 127.8 88.0023Z" fill="url(#paint7_radial_234_1631)"/>
<path d="M97.3 149.1C97.3 153 93.1 154.8 88 154.8C82.9 154.8 78.7 153 78.7 149.1C78.7 145.2 82.9 142 88 142C93.1 142 97.3 145.1 97.3 149.1Z" fill="#FF6101"/>
<path d="M177.5 149.1C177.5 153 173.3 154.8 168.2 154.8C163.1 154.8 158.9 153 158.9 149.1C158.9 145.2 163.1 142 168.2 142C173.3 142 177.5 145.1 177.5 149.1Z" fill="#FF6101"/>
<path d="M94.4 138.399C96.2225 138.399 97.7 136.787 97.7 134.799C97.7 132.811 96.2225 131.199 94.4 131.199C92.5774 131.199 91.1 132.811 91.1 134.799C91.1 136.787 92.5774 138.399 94.4 138.399Z" fill="#FFC49C"/>
<path d="M173.3 138.399C175.123 138.399 176.6 136.787 176.6 134.799C176.6 132.811 175.123 131.199 173.3 131.199C171.477 131.199 170 132.811 170 134.799C170 136.787 171.477 138.399 173.3 138.399Z" fill="#FFC49C"/>
</g>
<defs>
<radialGradient id="paint0_radial_234_1631" cx="0" cy="0" r="1" gradientUnits="userSpaceOnUse" gradientTransform="translate(199.313 107.558) scale(59.9015 52.2545)">
<stop stop-color="#FEFFFF"/>
<stop offset="0.4" stop-color="#FEFFFF"/>
<stop offset="0.51" stop-color="#F9FCFC"/>
<stop offset="0.62" stop-color="#EDF3F5"/>
<stop offset="0.7" stop-color="#DEE9EC"/>
<stop offset="0.72" stop-color="#D8E4E8"/>
<stop offset="0.76" stop-color="#CCD8DF"/>
<stop offset="0.8" stop-color="#C8D5DD"/>
<stop offset="0.83" stop-color="#CCD6DE"/>
<stop offset="0.85" stop-color="#D8DBE2"/>
<stop offset="0.88" stop-color="#EDE3E9"/>
<stop offset="0.9" stop-color="#FFEBEF"/>
</radialGradient>
<radialGradient id="paint1_radial_234_1631" cx="0" cy="0" r="1" gradientUnits="userSpaceOnUse" gradientTransform="translate(54.1929 107.558) scale(59.9015 52.2545)">
<stop stop-color="#FEFFFF"/>
<stop offset="0.4" stop-color="#FEFFFF"/>
<stop offset="0.51" stop-color="#F9FCFC"/>
<stop offset="0.62" stop-color="#EDF3F5"/>
<stop offset="0.7" stop-color="#DEE9EC"/>
<stop offset="0.72" stop-color="#D8E4E8"/>
<stop offset="0.76" stop-color="#CCD8DF"/>
<stop offset="0.8" stop-color="#C8D5DD"/>
<stop offset="0.83" stop-color="#CCD6DE"/>
<stop offset="0.85" stop-color="#D8DBE2"/>
<stop offset="0.88" stop-color="#EDE3E9"/>
<stop offset="0.9" stop-color="#FFEBEF"/>
</radialGradient>
<radialGradient id="paint2_radial_234_1631" cx="0" cy="0" r="1" gradientUnits="userSpaceOnUse" gradientTransform="translate(128.648 99.1767) scale(180.687 126.865)">
<stop stop-color="#FEFFFF"/>
<stop offset="0.4" stop-color="#FEFFFF"/>
<stop offset="0.51" stop-color="#F9FCFC"/>
<stop offset="0.62" stop-color="#EDF3F5"/>
<stop offset="0.7" stop-color="#DEE9EC"/>
<stop offset="0.72" stop-color="#D8E4E8"/>
<stop offset="0.76" stop-color="#CCD8DF"/>
<stop offset="0.8" stop-color="#C8D5DD"/>
<stop offset="0.83" stop-color="#CCD6DE"/>
<stop offset="0.85" stop-color="#D8DBE2"/>
<stop offset="0.88" stop-color="#EDE3E9"/>
<stop offset="0.9" stop-color="#FFEBEF"/>
</radialGradient>
<radialGradient id="paint3_radial_234_1631" cx="0" cy="0" r="1" gradientUnits="userSpaceOnUse" gradientTransform="translate(166.983 150.974) rotate(180) scale(15.0964 22.1628)">
<stop stop-color="#FF6600"/>
<stop offset="0.5" stop-color="#FF4500"/>
<stop offset="0.7" stop-color="#FC4301"/>
<stop offset="0.82" stop-color="#F43F07"/>
<stop offset="0.92" stop-color="#E53812"/>
<stop offset="1" stop-color="#D4301F"/>
</radialGradient>
<radialGradient id="paint4_radial_234_1631" cx="0" cy="0" r="1" gradientUnits="userSpaceOnUse" gradientTransform="translate(88.4868 150.974) scale(15.0964 22.1628)">
<stop stop-color="#FF6600"/>
<stop offset="0.5" stop-color="#FF4500"/>
<stop offset="0.7" stop-color="#FC4301"/>
<stop offset="0.82" stop-color="#F43F07"/>
<stop offset="0.92" stop-color="#E53812"/>
<stop offset="1" stop-color="#D4301F"/>
</radialGradient>
<radialGradient id="paint5_radial_234_1631" cx="0" cy="0" r="1" gradientUnits="userSpaceOnUse" gradientTransform="translate(126.665 194.907) scale(53.2322 35.1106)">
<stop stop-color="#172E35"/>
<stop offset="0.29" stop-color="#0E1C21"/>
<stop offset="0.73" stop-color="#030708"/>
<stop offset="1"/>
</radialGradient>
<radialGradient id="paint6_radial_234_1631" cx="0" cy="0" r="1" gradientUnits="userSpaceOnUse" gradientTransform="translate(173.613 34.1069) scale(46.7274 46.7274)">
<stop stop-color="#FEFFFF"/>
<stop offset="0.4" stop-color="#FEFFFF"/>
<stop offset="0.51" stop-color="#F9FCFC"/>
<stop offset="0.62" stop-color="#EDF3F5"/>
<stop offset="0.7" stop-color="#DEE9EC"/>
<stop offset="0.72" stop-color="#D8E4E8"/>
<stop offset="0.76" stop-color="#CCD8DF"/>
<stop offset="0.8" stop-color="#C8D5DD"/>
<stop offset="0.83" stop-color="#CCD6DE"/>
<stop offset="0.85" stop-color="#D8DBE2"/>
<stop offset="0.88" stop-color="#EDE3E9"/>
<stop offset="0.9" stop-color="#FFEBEF"/>
</radialGradient>
<radialGradient id="paint7_radial_234_1631" cx="0" cy="0" r="1" gradientUnits="userSpaceOnUse" gradientTransform="translate(154.136 85.0483) scale(38.3003)">
<stop offset="0.48" stop-color="#7A9299"/>
<stop offset="0.67" stop-color="#172E35"/>
<stop offset="0.75"/>
<stop offset="0.82" stop-color="#172E35"/>
</radialGradient>
<clipPath id="clip0_234_1631">
<rect width="256" height="256" rx="128" fill="white"/>
</clipPath>
</defs>
</svg>
